<?xml version="1.0" standalone="no"?><svg xmlns:xlink="http://www.w3.org/1999/xlink" xmlns="http://www.w3.org/2000/svg" viewBox="0 0 1000 666.6666666666666" preserveAspectRatio="xMaxYMax slice"><g transform="scale(1.027221366204417)"><rect x="0" y="0" width="973.5" height="649" fill="#ffffff"/><rect x="0" y="0" width="108.17" height="108.17" fill="#a1b3e9"/><path d="M 0 108.17 A 108.17 108.17 0 0 1  108.17 0 L 0 108.17 A 108.17 108.17 0 0 0 108.17 0" fill="#a9baeb"/><rect x="108.17" y="0" width="108.17" height="108.17" fill="#e1e7f8"/><polygon points="108.17,0 216.34,0 108.17,108.17" fill="#f5f7fd"/><rect x="216.33" y="0" width="108.17" height="108.17" fill="#fafbfe"/><rect x="216.33" y="0" width="108.17" height="108.17" fill="#486bd4"/><rect x="324.5" y="0" width="108.17" height="108.17" fill="#1aade2"/><path d="M 324.5 0 A 108.17 108.17 0 0 1  432.67 108.17 L 324.5 0 A 108.17 108.17 0 0 0 432.67 108.17" fill="#607ed9"/><rect x="432.6666666666667" y="0" width="108.16666666666667" height="108.16666666666667" fill="#ffffff"/><rect x="432.67" y="0" width="54.08" height="54.08" fill="#9dafe8"/><polygon points="486.75,0 486.75,54.08 432.67,54.08" fill="#c8ebf8"/><rect x="486.75" y="0" width="54.08" height="54.08" fill="#29b2e4"/><polygon points="486.75,0 540.83,54.08 486.75,54.08" fill="#4abee8"/><rect x="432.67" y="54.08" width="54.08" height="54.08" fill="#43bbe7"/><polygon points="432.67,54.08 486.75,54.08 486.75,108.16" fill="#fbfeff"/><rect x="486.75" y="54.08" width="54.08" height="54.08" fill="#aae0f4"/><polygon points="486.75,54.08 540.83,54.08 486.75,108.16" fill="#a2b4e9"/><rect x="540.83" y="0" width="108.17" height="108.17" fill="#8fd7f1"/><rect x="540.83" y="0" width="108.17" height="108.17" fill="#86d4f0"/><rect x="649" y="0" width="108.16666666666667" height="108.16666666666667" fill="#ffffff"/><rect x="649" y="0" width="54.08" height="54.08" fill="#69c9ec"/><path d="M 649 54.08 A 54.08 54.08 0 0 0 703.08 0 L 649 0L649 54.08" fill="#1cade3"/><rect x="703.08" y="0" width="54.08" height="54.08" fill="#81d2ef"/><path d="M 703.08 0 A 54.08 54.08 0 0 0 757.1600000000001 54.08 L 757.1600000000001 0L703.08 0" fill="#9cdbf3"/><rect x="649" y="54.08" width="54.08" height="54.08" fill="#8fa4e4"/><path d="M 649 54.08 A 54.08 54.08 0 0 1 703.08 108.16 L 649 108.16L649 54.08" fill="#eaf7fc"/><rect x="703.08" y="54.08" width="54.08" height="54.08" fill="#dce3f7"/><path d="M 703.08 108.16 A 54.08 54.08 0 0 1  757.1600000000001 54.08 L 757.1600000000001 108.16L703.08 108.16" fill="#728dde"/><rect x="757.1666666666667" y="0" width="108.16666666666667" height="108.16666666666667" fill="#ffffff"/><rect x="757.17" y="0" width="54.08" height="54.08" fill="#f7f9fd"/><polygon points="811.25,0 811.25,54.08 757.17,54.08" fill="#6683db"/><rect x="811.25" y="0" width="54.08" height="54.08" fill="#fdfeff"/><polygon points="811.25,0 865.33,0 811.25,54.08" fill="#aae0f4"/><rect x="757.17" y="54.08" width="54.08" height="54.08" fill="#8da3e4"/><polygon points="757.17,54.08 811.25,54.08 811.25,108.16" fill="#3cb9e7"/><rect x="811.25" y="54.08" width="54.08" height="54.08" fill="#35b6e6"/><polygon points="811.25,54.08 865.33,108.16 811.25,108.16" fill="#90a5e5"/><rect x="865.33" y="0" width="108.17" height="108.17" fill="#8ba1e4"/><path d="M 865.33 108.17 A 108.17 108.17 0 0 1  973.5 0 L 865.33 108.17 A 108.17 108.17 0 0 0 973.5 0" fill="#aae1f4"/><rect x="0" y="108.17" width="108.17" height="108.17" fill="#a0b2e8"/><polygon points="0,108.17 108.17,108.17 108.17,216.34" fill="#4a6cd4"/><rect x="108.17" y="108.17" width="108.17" height="108.17" fill="#6c87dc"/><rect x="108.17" y="108.17" width="108.17" height="108.17" fill="#bae6f6"/><rect x="216.33" y="108.17" width="108.17" height="108.17" fill="#55c2ea"/><polygon points="216.33,108.17 324.5,108.17 216.33,216.34" fill="#a8e0f4"/><rect x="324.5" y="108.16666666666667" width="108.16666666666667" height="108.16666666666667" fill="#ffffff"/><rect x="324.5" y="108.17" width="54.08" height="54.08" fill="#fafdfe"/><polygon points="378.58,108.17 378.58,162.25 324.5,162.25" fill="#76ceee"/><rect x="378.58" y="108.17" width="54.08" height="54.08" fill="#8ea3e4"/><polygon points="378.58,108.17 432.65999999999997,162.25 378.58,162.25" fill="#b8c6ee"/><rect x="324.5" y="162.25" width="54.08" height="54.08" fill="#d5ddf5"/><polygon points="324.5,162.25 378.58,162.25 324.5,216.32999999999998" fill="#8199e1"/><rect x="378.58" y="162.25" width="54.08" height="54.08" fill="#ced7f3"/><polygon points="378.58,162.25 432.65999999999997,162.25 432.65999999999997,216.32999999999998" fill="#d4f0fa"/><rect x="432.6666666666667" y="108.16666666666667" width="108.16666666666667" height="108.16666666666667" fill="#ffffff"/><rect x="432.67" y="108.17" width="54.08" height="54.08" fill="#7892df"/><circle cx="459.71000000000004" cy="135.21" r="27.04" fill="#37b7e6"/><rect x="486.75" y="108.17" width="54.08" height="54.08" fill="#29b2e4"/><rect x="486.75" y="108.17" width="54.08" height="54.08" fill="#d8e0f6"/><rect x="432.67" y="162.25" width="54.08" height="54.08" fill="#96aae6"/><circle cx="459.71000000000004" cy="189.29" r="27.04" fill="#73cded"/><rect x="486.75" y="162.25" width="54.08" height="54.08" fill="#c4eaf8"/><rect x="486.75" y="162.25" width="54.08" height="54.08" fill="#1bade2"/><rect x="540.8333333333334" y="108.16666666666667" width="108.16666666666667" height="108.16666666666667" fill="#ffffff"/><rect x="540.83" y="108.17" width="54.08" height="54.08" fill="#88d4f0"/><path d="M 540.83 108.17 A 54.08 54.08 0 0 1 594.9100000000001 162.25 L 540.83 162.25L540.83 108.17" fill="#46bde8"/><rect x="594.92" y="108.17" width="54.08" height="54.08" fill="#f7f8fd"/><path d="M 594.92 162.25 A 54.08 54.08 0 0 1  649 108.17 L 649 162.25L594.92 162.25" fill="#abbbeb"/><rect x="540.83" y="162.25" width="54.08" height="54.08" fill="#7c95e0"/><path d="M 540.83 216.32999999999998 A 54.08 54.08 0 0 0 594.9100000000001 162.25 L 540.83 162.25L540.83 216.32999999999998" fill="#62c6eb"/><rect x="594.92" y="162.25" width="54.08" height="54.08" fill="#b4e4f6"/><path d="M 594.92 162.25 A 54.08 54.08 0 0 0 649 216.32999999999998 L 649 162.25L594.92 162.25" fill="#6280da"/><rect x="649" y="108.16666666666667" width="108.16666666666667" height="108.16666666666667" fill="#ffffff"/><rect x="649" y="108.17" width="54.08" height="54.08" fill="#d0d9f4"/><path d="M 649 108.17 A 54.08 54.08 0 0 1 703.08 162.25 L 649 162.25L649 108.17" fill="#fcfeff"/><rect x="703.08" y="108.17" width="54.08" height="54.08" fill="#58c3ea"/><path d="M 703.08 162.25 A 54.08 54.08 0 0 1  757.1600000000001 108.17 L 757.1600000000001 162.25L703.08 162.25" fill="#7f97e1"/><rect x="649" y="162.25" width="54.08" height="54.08" fill="#c7ebf8"/><path d="M 649 216.32999999999998 A 54.08 54.08 0 0 0 703.08 162.25 L 649 162.25L649 216.32999999999998" fill="#c4cff1"/><rect x="703.08" y="162.25" width="54.08" height="54.08" fill="#dbe2f7"/><path d="M 703.08 162.25 A 54.08 54.08 0 0 0 757.1600000000001 216.32999999999998 L 757.1600000000001 162.25L703.08 162.25" fill="#f6f7fd"/><rect x="757.1666666666667" y="108.16666666666667" width="108.16666666666667" height="108.16666666666667" fill="#ffffff"/><rect x="757.17" y="108.17" width="54.08" height="54.08" fill="#27b1e4"/><path d="M 757.17 162.25 A 54.08 54.08 0 0 1 811.25 108.17 L 811.25 121.69 A 40.56 40.56 0 0 0 770.6899999999999 162.25" fill="#f6f8fd"/><rect x="811.25" y="108.17" width="54.08" height="54.08" fill="#a6dff4"/><path d="M 811.25 108.17 A 54.08 54.08 0 0 1 865.33 162.25 L 851.81 162.25 A 40.56 40.56 0 0 0 811.25 121.69" fill="#6582da"/><rect x="757.17" y="162.25" width="54.08" height="54.08" fill="#b1e3f5"/><path d="M 757.17 162.25 A 54.08 54.08 0 0 0 811.25 216.32999999999998 L 811.25 202.81 A 40.56 40.56 0 0 1 770.6899999999999 162.25" fill="#c7ebf8"/><rect x="811.25" y="162.25" width="54.08" height="54.08" fill="#e4e9f9"/><path d="M 811.25 216.32999999999998 A 54.08 54.08 0 0 0 865.33 162.25 L 851.81 162.25 A 40.56 40.56 0 0 1 811.25 202.81" fill="#4f70d5"/><rect x="865.33" y="108.17" width="108.17" height="108.17" fill="#d6ddf5"/><rect x="865.33" y="108.17" width="108.17" height="108.17" fill="#2cb3e4"/><rect x="0" y="216.33333333333334" width="108.16666666666667" height="108.16666666666667" fill="#ffffff"/><rect x="0" y="216.33" width="54.08" height="54.08" fill="#4fc0e9"/><circle cx="27.04" cy="243.37" r="27.04" fill="#879ee3"/><rect x="54.08" y="216.33" width="54.08" height="54.08" fill="#e3e8f8"/><rect x="54.08" y="216.33" width="54.08" height="54.08" fill="#738ede"/><rect x="0" y="270.42" width="54.08" height="54.08" fill="#e9f7fc"/><circle cx="27.04" cy="297.46000000000004" r="27.04" fill="#7e96e0"/><rect x="54.08" y="270.42" width="54.08" height="54.08" fill="#aabaeb"/><rect x="54.08" y="270.42" width="54.08" height="54.08" fill="#8bd5f0"/><rect x="108.17" y="216.33" width="108.17" height="108.17" fill="#b2c0ed"/><path d="M 108.17 216.33 A 108.17 108.17 0 0 1  216.34 324.5 L 108.17 216.33 A 108.17 108.17 0 0 0 216.34 324.5" fill="#42bbe7"/><rect x="216.33" y="216.33" width="108.17" height="108.17" fill="#e3e8f8"/><path d="M 216.33 324.5 A 108.17 108.17 0 0 1  324.5 216.33 L 216.33 324.5 A 108.17 108.17 0 0 0 324.5 216.33" fill="#6380da"/><rect x="324.5" y="216.33" width="108.17" height="108.17" fill="#a2b3e9"/><path d="M 324.5 216.33 A 108.17 108.17 0 0 1 432.67 324.5 L 324.5 324.5L324.5 216.33" fill="#b4c2ed"/><rect x="432.6666666666667" y="216.33333333333334" width="108.16666666666667" height="108.16666666666667" fill="#ffffff"/><rect x="432.67" y="216.33" width="54.08" height="54.08" fill="#6985db"/><path d="M 432.67 270.41 A 54.08 54.08 0 0 1  486.75 216.33 L 486.75 270.41L432.67 270.41" fill="#97daf2"/><rect x="486.75" y="216.33" width="54.08" height="54.08" fill="#d8f1fa"/><path d="M 486.75 216.33 A 54.08 54.08 0 0 1 540.83 270.41 L 486.75 270.41L486.75 216.33" fill="#7892df"/><rect x="432.67" y="270.42" width="54.08" height="54.08" fill="#c1e9f7"/><path d="M 432.67 270.42 A 54.08 54.08 0 0 0 486.75 324.5 L 486.75 270.42L432.67 270.42" fill="#ecf0fb"/><rect x="486.75" y="270.42" width="54.08" height="54.08" fill="#36b7e6"/><path d="M 486.75 324.5 A 54.08 54.08 0 0 0 540.83 270.42 L 486.75 270.42L486.75 324.5" fill="#71cced"/><rect x="540.83" y="216.33" width="108.17" height="108.17" fill="#d9e0f6"/><polygon points="540.83,216.33 649,216.33 540.83,324.5" fill="#bcc9ef"/><rect x="649" y="216.33" width="108.17" height="108.17" fill="#80d1ef"/><rect x="649" y="216.33" width="108.17" height="108.17" fill="#4e6fd5"/><rect x="757.17" y="216.33" width="108.17" height="108.17" fill="#829ae1"/><rect x="757.17" y="216.33" width="108.17" height="108.17" fill="#e3f5fb"/><rect x="865.3333333333334" y="216.33333333333334" width="108.16666666666667" height="108.16666666666667" fill="#ffffff"/><rect x="865.33" y="216.33" width="54.08" height="54.08" fill="#8dd6f1"/><polygon points="919.4100000000001,216.33 919.4100000000001,270.41 865.33,270.41" fill="#1aade2"/><rect x="919.42" y="216.33" width="54.08" height="54.08" fill="#2cb3e4"/><polygon points="919.42,216.33 973.5,270.41 919.42,270.41" fill="#ecf8fd"/><rect x="865.33" y="270.42" width="54.08" height="54.08" fill="#4e70d5"/><polygon points="865.33,270.42 919.4100000000001,270.42 919.4100000000001,324.5" fill="#69c9ec"/><rect x="919.42" y="270.42" width="54.08" height="54.08" fill="#84d3f0"/><polygon points="919.42,270.42 973.5,270.42 919.42,324.5" fill="#76ceee"/><rect x="0" y="324.5" width="108.17" height="108.17" fill="#e6f6fc"/><polygon points="0,324.5 108.17,324.5 0,432.67" fill="#a4b6ea"/><rect x="108.17" y="324.5" width="108.17" height="108.17" fill="#8da2e4"/><path d="M 108.17 324.5 A 108.17 108.17 0 0 1 216.34 432.67 L 108.17 432.67L108.17 324.5" fill="#8aa0e3"/><rect x="216.33333333333334" y="324.5" width="108.16666666666667" height="108.16666666666667" fill="#ffffff"/><rect x="216.33" y="324.5" width="54.08" height="54.08" fill="#28b2e4"/><polygon points="270.41,324.5 270.41,378.58 216.33,378.58" fill="#d6f0fa"/><rect x="270.42" y="324.5" width="54.08" height="54.08" fill="#75cdee"/><polygon points="270.42,324.5 324.5,324.5 270.42,378.58" fill="#49bee8"/><rect x="216.33" y="378.58" width="54.08" height="54.08" fill="#ade2f5"/><polygon points="216.33,378.58 270.41,378.58 270.41,432.65999999999997" fill="#f7f8fd"/><rect x="270.42" y="378.58" width="54.08" height="54.08" fill="#82d2ef"/><polygon points="270.42,378.58 324.5,432.65999999999997 270.42,432.65999999999997" fill="#8098e1"/><rect x="324.5" y="324.5" width="108.17" height="108.17" fill="#6481da"/><path d="M 324.5 432.67 A 108.17 108.17 0 0 1  432.67 324.5 L 432.67 432.67L324.5 432.67" fill="#cad4f2"/><rect x="432.6666666666667" y="324.5" width="108.16666666666667" height="108.16666666666667" fill="#ffffff"/><rect x="432.67" y="324.5" width="54.08" height="54.08" fill="#6c88dc"/><path d="M 432.67 378.58 A 54.08 54.08 0 0 1 486.75 324.5 L 486.75 338.02 A 40.56 40.56 0 0 0 446.19 378.58" fill="#9bdbf2"/><rect x="486.75" y="324.5" width="54.08" height="54.08" fill="#1eaee3"/><path d="M 486.75 324.5 A 54.08 54.08 0 0 1 540.83 378.58 L 527.31 378.58 A 40.56 40.56 0 0 0 486.75 338.02" fill="#bde7f7"/><rect x="432.67" y="378.58" width="54.08" height="54.08" fill="#7791df"/><path d="M 432.67 378.58 A 54.08 54.08 0 0 0 486.75 432.65999999999997 L 486.75 419.14 A 40.56 40.56 0 0 1 446.19 378.58" fill="#e8ecfa"/><rect x="486.75" y="378.58" width="54.08" height="54.08" fill="#7f97e1"/><path d="M 486.75 432.65999999999997 A 54.08 54.08 0 0 0 540.83 378.58 L 527.31 378.58 A 40.56 40.56 0 0 1 486.75 419.14" fill="#6f8add"/><rect x="540.8333333333334" y="324.5" width="108.16666666666667" height="108.16666666666667" fill="#ffffff"/><rect x="540.83" y="324.5" width="54.08" height="54.08" fill="#c7ebf8"/><path d="M 540.83 324.5 A 54.08 54.08 0 0 0 594.9100000000001 378.58 L 594.9100000000001 324.5L540.83 324.5" fill="#d8f1fa"/><rect x="594.92" y="324.5" width="54.08" height="54.08" fill="#8fd7f1"/><path d="M 594.92 378.58 A 54.08 54.08 0 0 0 649 324.5 L 594.92 324.5L594.92 378.58" fill="#dbe2f6"/><rect x="540.83" y="378.58" width="54.08" height="54.08" fill="#23b0e3"/><path d="M 540.83 432.65999999999997 A 54.08 54.08 0 0 1  594.9100000000001 378.58 L 594.9100000000001 432.65999999999997L540.83 432.65999999999997" fill="#def3fb"/><rect x="594.92" y="378.58" width="54.08" height="54.08" fill="#3ebae7"/><path d="M 594.92 378.58 A 54.08 54.08 0 0 1 649 432.65999999999997 L 594.92 432.65999999999997L594.92 378.58" fill="#5f7dd9"/><rect x="649" y="324.5" width="108.17" height="108.17" fill="#f1f4fc"/><rect x="649" y="324.5" width="108.17" height="108.17" fill="#30b5e5"/><rect x="757.17" y="324.5" width="108.17" height="108.17" fill="#f6f7fd"/><polygon points="757.17,324.5 865.3399999999999,324.5 865.3399999999999,432.67" fill="#e7ebf9"/><rect x="865.33" y="324.5" width="108.17" height="108.17" fill="#a3def3"/><rect x="865.33" y="324.5" width="108.17" height="108.17" fill="#c5d0f1"/><rect x="0" y="432.67" width="108.17" height="108.17" fill="#37b7e6"/><rect x="0" y="432.67" width="108.17" height="108.17" fill="#49bee8"/><rect x="108.17" y="432.67" width="108.17" height="108.17" fill="#aee2f5"/><rect x="108.17" y="432.67" width="108.17" height="108.17" fill="#9adbf2"/><rect x="216.33333333333334" y="432.6666666666667" width="108.16666666666667" height="108.16666666666667" fill="#ffffff"/><rect x="216.33" y="432.67" width="54.08" height="54.08" fill="#fefeff"/><path d="M 216.33 486.75 A 54.08 54.08 0 0 0 270.41 432.67 L 216.33 432.67L216.33 486.75" fill="#e7ebf9"/><rect x="270.42" y="432.67" width="54.08" height="54.08" fill="#d3dbf5"/><path d="M 270.42 432.67 A 54.08 54.08 0 0 0 324.5 486.75 L 324.5 432.67L270.42 432.67" fill="#c8ebf8"/><rect x="216.33" y="486.75" width="54.08" height="54.08" fill="#b6e5f6"/><path d="M 216.33 486.75 A 54.08 54.08 0 0 1 270.41 540.83 L 216.33 540.83L216.33 486.75" fill="#53c1e9"/><rect x="270.42" y="486.75" width="54.08" height="54.08" fill="#5071d6"/><path d="M 270.42 540.83 A 54.08 54.08 0 0 1  324.5 486.75 L 324.5 540.83L270.42 540.83" fill="#5f7ed9"/><rect x="324.5" y="432.67" width="108.17" height="108.17" fill="#7690de"/><polygon points="432.67,432.67 432.67,540.84 324.5,540.84" fill="#c5d0f1"/><rect x="432.67" y="432.67" width="108.17" height="108.17" fill="#94d9f2"/><polygon points="540.84,432.67 540.84,540.84 432.67,540.84" fill="#becaf0"/><rect x="540.83" y="432.67" width="108.17" height="108.17" fill="#93a8e5"/><polygon points="540.83,432.67 649,432.67 540.83,540.84" fill="#88d4f0"/><rect x="649" y="432.67" width="108.17" height="108.17" fill="#edf1fb"/><path d="M 649 432.67 A 108.17 108.17 0 0 1 757.17 540.84 L 649 540.84L649 432.67" fill="#91d8f1"/><rect x="757.1666666666667" y="432.6666666666667" width="108.16666666666667" height="108.16666666666667" fill="#ffffff"/><rect x="757.17" y="432.67" width="54.08" height="54.08" fill="#bae6f6"/><circle cx="784.2099999999999" cy="459.71000000000004" r="27.04" fill="#4165d2"/><rect x="811.25" y="432.67" width="54.08" height="54.08" fill="#b5c3ee"/><rect x="811.25" y="432.67" width="54.08" height="54.08" fill="#e9f7fc"/><rect x="757.17" y="486.75" width="54.08" height="54.08" fill="#98abe7"/><circle cx="784.2099999999999" cy="513.79" r="27.04" fill="#ade2f5"/><rect x="811.25" y="486.75" width="54.08" height="54.08" fill="#5777d7"/><rect x="811.25" y="486.75" width="54.08" height="54.08" fill="#c4cff1"/><rect x="865.3333333333334" y="432.6666666666667" width="108.16666666666667" height="108.16666666666667" fill="#ffffff"/><rect x="865.33" y="432.67" width="54.08" height="54.08" fill="#9fb1e8"/><path d="M 865.33 432.67 A 54.08 54.08 0 0 0 919.4100000000001 486.75 L 919.4100000000001 432.67L865.33 432.67" fill="#e0e6f8"/><rect x="919.42" y="432.67" width="54.08" height="54.08" fill="#3cb9e7"/><path d="M 919.42 486.75 A 54.08 54.08 0 0 0 973.5 432.67 L 919.42 432.67L919.42 486.75" fill="#fdfdff"/><rect x="865.33" y="486.75" width="54.08" height="54.08" fill="#9baee7"/><path d="M 865.33 540.83 A 54.08 54.08 0 0 1  919.4100000000001 486.75 L 919.4100000000001 540.83L865.33 540.83" fill="#9bdbf2"/><rect x="919.42" y="486.75" width="54.08" height="54.08" fill="#bde7f7"/><path d="M 919.42 486.75 A 54.08 54.08 0 0 1 973.5 540.83 L 919.42 540.83L919.42 486.75" fill="#4bbee8"/><rect x="0" y="540.83" width="108.17" height="108.17" fill="#c7d2f2"/><path d="M 0 649 A 108.17 108.17 0 0 1  108.17 540.83 L 108.17 649L0 649" fill="#a0ddf3"/><rect x="108.16666666666667" y="540.8333333333334" width="108.16666666666667" height="108.16666666666667" fill="#ffffff"/><rect x="108.17" y="540.83" width="54.08" height="54.08" fill="#8ca2e4"/><path d="M 108.17 594.9100000000001 A 54.08 54.08 0 0 1  162.25 540.83 L 162.25 594.9100000000001L108.17 594.9100000000001" fill="#5071d6"/><rect x="162.25" y="540.83" width="54.08" height="54.08" fill="#96d9f2"/><path d="M 162.25 540.83 A 54.08 54.08 0 0 1 216.32999999999998 594.9100000000001 L 162.25 594.9100000000001L162.25 540.83" fill="#5cc5eb"/><rect x="108.17" y="594.92" width="54.08" height="54.08" fill="#53c1e9"/><path d="M 108.17 594.92 A 54.08 54.08 0 0 0 162.25 649 L 162.25 594.92L108.17 594.92" fill="#c3eaf8"/><rect x="162.25" y="594.92" width="54.08" height="54.08" fill="#1bade2"/><path d="M 162.25 649 A 54.08 54.08 0 0 0 216.32999999999998 594.92 L 162.25 594.92L162.25 649" fill="#ceeef9"/><rect x="216.33" y="540.83" width="108.17" height="108.17" fill="#76ceee"/><path d="M 216.33 649 A 108.17 108.17 0 0 0 324.5 540.83 L 216.33 540.83L216.33 649" fill="#6e89dd"/><rect x="324.5" y="540.8333333333334" width="108.16666666666667" height="108.16666666666667" fill="#ffffff"/><rect x="324.5" y="540.83" width="54.08" height="54.08" fill="#fafdfe"/><path d="M 324.5 594.9100000000001 A 54.08 54.08 0 0 0 378.58 540.83 L 324.5 540.83L324.5 594.9100000000001" fill="#98daf2"/><rect x="378.58" y="540.83" width="54.08" height="54.08" fill="#e4e9f9"/><path d="M 378.58 540.83 A 54.08 54.08 0 0 0 432.65999999999997 594.9100000000001 L 432.65999999999997 540.83L378.58 540.83" fill="#b4e4f6"/><rect x="324.5" y="594.92" width="54.08" height="54.08" fill="#e7ecf9"/><path d="M 324.5 594.92 A 54.08 54.08 0 0 1 378.58 649 L 324.5 649L324.5 594.92" fill="#c5eaf8"/><rect x="378.58" y="594.92" width="54.08" height="54.08" fill="#758fde"/><path d="M 378.58 649 A 54.08 54.08 0 0 1  432.65999999999997 594.92 L 432.65999999999997 649L378.58 649" fill="#74cdee"/><rect x="432.6666666666667" y="540.8333333333334" width="108.16666666666667" height="108.16666666666667" fill="#ffffff"/><rect x="432.67" y="540.83" width="54.08" height="54.08" fill="#5d7cd9"/><polygon points="486.75,540.83 486.75,594.9100000000001 432.67,594.9100000000001" fill="#4b6dd4"/><rect x="486.75" y="540.83" width="54.08" height="54.08" fill="#b7c5ee"/><polygon points="486.75,540.83 540.83,594.9100000000001 486.75,594.9100000000001" fill="#e1e6f8"/><rect x="432.67" y="594.92" width="54.08" height="54.08" fill="#d9f1fa"/><polygon points="432.67,594.92 486.75,594.92 432.67,649" fill="#486bd4"/><rect x="486.75" y="594.92" width="54.08" height="54.08" fill="#79cfee"/><polygon points="486.75,594.92 540.83,594.92 540.83,649" fill="#9aaee7"/><rect x="540.8333333333334" y="540.8333333333334" width="108.16666666666667" height="108.16666666666667" fill="#ffffff"/><rect x="540.83" y="540.83" width="54.08" height="54.08" fill="#bdc9ef"/><path d="M 540.83 594.9100000000001 A 54.08 54.08 0 0 1  594.9100000000001 540.83 L 594.9100000000001 594.9100000000001L540.83 594.9100000000001" fill="#b7e5f6"/><rect x="594.92" y="540.83" width="54.08" height="54.08" fill="#6f8add"/><path d="M 594.92 540.83 A 54.08 54.08 0 0 1 649 594.9100000000001 L 594.92 594.9100000000001L594.92 540.83" fill="#f0fafd"/><rect x="540.83" y="594.92" width="54.08" height="54.08" fill="#5676d7"/><path d="M 540.83 594.92 A 54.08 54.08 0 0 0 594.9100000000001 649 L 594.9100000000001 594.92L540.83 594.92" fill="#8ea4e4"/><rect x="594.92" y="594.92" width="54.08" height="54.08" fill="#92d8f1"/><path d="M 594.92 649 A 54.08 54.08 0 0 0 649 594.92 L 594.92 594.92L594.92 649" fill="#f9fbfe"/><rect x="649" y="540.8333333333334" width="108.16666666666667" height="108.16666666666667" fill="#ffffff"/><rect x="649" y="540.83" width="54.08" height="54.08" fill="#aabaeb"/><path d="M 649 594.9100000000001 A 54.08 54.08 0 0 1 703.08 540.83 L 703.08 554.35 A 40.56 40.56 0 0 0 662.52 594.9100000000001" fill="#daf2fa"/><rect x="703.08" y="540.83" width="54.08" height="54.08" fill="#6e8add"/><path d="M 703.08 540.83 A 54.08 54.08 0 0 1 757.1600000000001 594.9100000000001 L 743.6400000000001 594.9100000000001 A 40.56 40.56 0 0 0 703.08 554.35" fill="#c0ccf0"/><rect x="649" y="594.92" width="54.08" height="54.08" fill="#6fcbed"/><path d="M 649 594.92 A 54.08 54.08 0 0 0 703.08 649 L 703.08 635.48 A 40.56 40.56 0 0 1 662.52 594.92" fill="#4e70d5"/><rect x="703.08" y="594.92" width="54.08" height="54.08" fill="#6a86dc"/><path d="M 703.08 649 A 54.08 54.08 0 0 0 757.1600000000001 594.92 L 743.6400000000001 594.92 A 40.56 40.56 0 0 1 703.08 635.48" fill="#d5f0fa"/><rect x="757.1666666666667" y="540.8333333333334" width="108.16666666666667" height="108.16666666666667" fill="#ffffff"/><rect x="757.17" y="540.83" width="54.08" height="54.08" fill="#728dde"/><path d="M 757.17 594.9100000000001 A 54.08 54.08 0 0 0 811.25 540.83 L 757.17 540.83L757.17 594.9100000000001" fill="#5e7dd9"/><rect x="811.25" y="540.83" width="54.08" height="54.08" fill="#d1daf4"/><path d="M 811.25 540.83 A 54.08 54.08 0 0 0 865.33 594.9100000000001 L 865.33 540.83L811.25 540.83" fill="#5877d7"/><rect x="757.17" y="594.92" width="54.08" height="54.08" fill="#486bd4"/><path d="M 757.17 594.92 A 54.08 54.08 0 0 1 811.25 649 L 757.17 649L757.17 594.92" fill="#48bde8"/><rect x="811.25" y="594.92" width="54.08" height="54.08" fill="#4d6fd5"/><path d="M 811.25 649 A 54.08 54.08 0 0 1  865.33 594.92 L 865.33 649L811.25 649" fill="#c1cdf0"/><rect x="865.33" y="540.83" width="108.17" height="108.17" fill="#e9f7fc"/><path d="M 865.33 540.83 A 108.17 108.17 0 0 1  973.5 649 L 865.33 540.83 A 108.17 108.17 0 0 0 973.5 649" fill="#afbeec"/></g></svg>